<svg xmlns="http://www.w3.org/2000/svg" viewBox="0 0 36.89 40.05">
    <linearGradient id="linear-gradient">
        <stop offset="0%" stop-color="#00AFBF"/>
        <!--<stop offset="0%" stop-color="teal"/>-->
        <stop offset="100%" stop-color="#5DBA00"/>
    </linearGradient>
    <path d="M701.5,369.4h0l-.9-.9-.3-.2h0l-1.2-.9a18.21,18.21,0,0,0-2.7-1.5,24.88,24.88,0,0,0-2.9-1.1,15.94,15.94,0,0,0-3-.6,20.23,20.23,0,0,0-11.9,1.9,22,22,0,0,0-2.6,1.5c-.8.6-1.6,1.2-2.4,1.9a20.89,20.89,0,0,0-2,2.2,22,22,0,0,0-1.7,2.5c-.5.9-.9,1.8-1.3,2.7a15.18,15.18,0,0,0-.9,2.8,29.31,29.31,0,0,0-.5,2.9,14,14,0,0,0,0,2.9,25.35,25.35,0,0,0,.4,2.9,22.88,22.88,0,0,0,.8,2.8,16,16,0,0,0,1.2,2.7,14.31,14.31,0,0,0,1.6,2.4,19.86,19.86,0,0,0,9.2,6.7,19.42,19.42,0,0,0,11.2.4,11.42,11.42,0,0,0,2.6-.9,19.65,19.65,0,0,0,2.5-1.3c.8-.5,1.5-1,2.3-1.6a18,18,0,0,0,2-1.9,21.1,21.1,0,0,1-4.4,3.3,18.89,18.89,0,0,1-2.5,1.1,12.55,12.55,0,0,1-2.6.7,18.23,18.23,0,0,1-10.6-1,17.67,17.67,0,0,1-8.2-26.1,15.58,15.58,0,0,1,1.6-2c.6-.6,1.2-1.2,1.8-1.7s1.3-1,2-1.5a22.56,22.56,0,0,1,2.2-1.1,17,17,0,0,1,9.7-1l2.4.6a14.72,14.72,0,0,1,2.2,1l1.5.9h0a1.24,1.24,0,0,1-.7,2.3.91.91,0,0,1-.7-.3h0l-1.2-.6a14.58,14.58,0,0,0-1.9-.7,14.16,14.16,0,0,0-2-.4,13.44,13.44,0,0,0-7.7,1.3,15.05,15.05,0,0,0-1.7,1l-1.5,1.2a8.64,8.64,0,0,0-1.3,1.4,9.06,9.06,0,0,0-1.1,1.6,12.46,12.46,0,0,0-1.6,7.3,12.63,12.63,0,0,0,2.6,6.8,12.12,12.12,0,0,0,12.7,4.3,11.86,11.86,0,0,0,5.7-3.6,11.21,11.21,0,0,1-5.8,3,11.6,11.6,0,0,1-6.4-.7,11,11,0,0,1-4.8-4A10.9,10.9,0,0,1,677,385a10.08,10.08,0,0,1,1.8-5.6,10.63,10.63,0,0,1,.9-1.1,5.24,5.24,0,0,1,1.1-1,8.34,8.34,0,0,1,1.2-.8c.4-.2.8-.4,1.3-.6a9.44,9.44,0,0,1,5.5-.4,8.26,8.26,0,0,1,2.2.8,1.36,1.36,0,0,1,.6,1.1,1.43,1.43,0,0,1-1.4,1.4.6.6,0,0,1-.4-.1h0c-.4-.1-.9-.2-1.4-.3a10.87,10.87,0,0,0-1.8.1,8.51,8.51,0,0,0-1.7.6,7.55,7.55,0,0,0-1.4,1.1,7.1,7.1,0,0,0-1,1.4,7.49,7.49,0,0,0-.5,1.6,4.3,4.3,0,0,0,0,1.6,8.33,8.33,0,0,0,.4,1.5,5.67,5.67,0,0,0,.8,1.3,5.24,5.24,0,0,0,1.1,1,7.54,7.54,0,0,0,1.3.6,3.33,3.33,0,0,0,1.4.1,2.77,2.77,0,0,0,1.3-.3l1.2-.6.9-.9a2.66,2.66,0,0,1-1,.6,2.61,2.61,0,0,1-1.1.3,3.75,3.75,0,0,1-1.1-.1,3,3,0,0,1-1-.4,5.55,5.55,0,0,1-.8-.6c-.2-.3-.4-.5-.6-.8l-.3-.9a2.72,2.72,0,0,1,0-.9,1.88,1.88,0,0,1,.2-.8,1.79,1.79,0,0,1,.5-.7,2.65,2.65,0,0,1,.6-.5c.2-.1.5-.2.7-.3s.5-.1.7,0a1.42,1.42,0,0,1,.6.2.35.35,0,0,1,.2.1l.6.6.1.1,3.3-3.6h0l9.5-10.4Z"
          transform="translate(-667.12 -363.99)"
          fill="url(#linear-gradient)"
    />
    <circle cx="34.39" cy="20.7" r="2.5" fill="#5DBA00"/>
</svg>
